<?xml version="1.0" standalone="no"?><!-- Generator: Adobe Fireworks CS6, Export SVG Extension by Aaron Beall (http://fireworks.abeall.com) . Version: 0.6.1  --><!DOCTYPE svg PUBLIC "-//W3C//DTD SVG 1.1//EN" "http://www.w3.org/Graphics/SVG/1.1/DTD/svg11.dtd"><svg id="Untitled-Page%201" viewBox="0 0 301 60" style="background-color:#ffffff00" version="1.1"	xmlns="http://www.w3.org/2000/svg" xmlns:xlink="http://www.w3.org/1999/xlink" xml:space="preserve"	x="0px" y="0px" width="301px" height="60px">	<g id="Layer%201">		<rect x="0.8658" y="0.5" width="300" height="59" fill="#3a72b8" rx="3" ry="3"/>		<rect x="0.8658" y="0.5" width="300" height="30" fill="#427cc4" rx="3" ry="3"/>		<g>			<path d="M 93.9375 31.5918 C 93.9375 26.6271 85.9375 28.0953 85.9375 24.9465 C 85.9375 23.8067 86.8384 22.8004 89.3834 22.8004 C 90.8022 22.8004 92.0814 23.0534 93.1987 23.4977 L 93.4638 21.7402 C 92.4412 21.22 90.9149 20.94 89.2708 20.94 C 85.5016 20.94 84.0625 22.7804 84.0625 25.0624 C 84.0625 29.8725 92.0625 28.443 92.0625 31.727 C 92.0625 33.2724 90.8923 34.1996 88.505 34.1996 C 86.7708 34.1996 85.407 33.8133 84.2519 33.0985 L 83.9425 34.9198 C 85.0851 35.6199 86.5906 36.06 88.5275 36.06 C 92.214 36.06 93.9375 34.3197 93.9375 31.5918 L 93.9375 31.5918 Z" fill="#ffffff"/>			<path d="M 104.5375 36.0625 L 104.5375 28.0997 C 104.5375 25.5103 103.1212 23.99 100.6675 23.99 C 99.4938 23.99 98.3573 24.4101 97.5561 25.3103 L 97.5172 25.2903 L 97.5375 23.7222 L 97.5375 20.0625 L 95.6625 20.3714 L 95.6625 36.0625 L 97.5375 36.0625 L 97.5375 27.0384 C 97.9846 26.3183 98.9907 25.7504 100.1458 25.7504 C 101.8599 25.7504 102.6625 26.5836 102.6625 28.0997 L 102.6625 36.0625 L 104.5375 36.0625 L 104.5375 36.0625 Z" fill="#ffffff"/>			<path d="M 114.6899 35.9375 L 116.1302 35.9375 L 116.1302 28.614 C 116.1302 25.4008 114.9499 24 111.839 24 C 110.4349 24 109.1693 24.2758 108.03 24.8277 L 108.21 26.4735 C 109.2682 25.9639 110.2767 25.7404 111.5226 25.7404 C 113.4408 25.7404 114.2698 26.4124 114.2698 28.3286 L 114.2698 29.3542 C 113.5396 29.1894 112.5706 29.0625 111.5621 29.0625 C 108.7501 29.0625 107.3098 29.9375 107.3098 32.2245 C 107.3098 34.7284 108.7901 36 110.9491 36 C 112.4718 36 113.7572 35.2861 114.4498 34.1636 L 114.5098 34.1828 L 114.6899 35.9375 L 114.6899 35.9375 ZM 114.2516 32.4898 C 114.2516 33.2991 112.9266 34.2596 111.4632 34.2596 C 110.0987 34.2596 109.0902 33.7025 109.0902 32.0696 C 109.0902 30.7056 109.9405 29.9375 111.8983 29.9375 C 113.0848 29.9375 113.9549 30.187 114.2516 30.3598 L 114.2516 32.4898 L 114.2516 32.4898 Z" fill="#ffffff"/>			<path d="M 120.7375 36.0625 L 120.7375 29.7464 C 120.7375 27.2679 122.2378 25.7404 124.0982 25.7404 C 124.5183 25.7404 124.9184 25.7769 125.2785 25.8931 L 125.3985 24.1452 C 125.0784 24.0545 124.6583 24 124.2182 24 C 122.5979 24 121.2976 24.9065 120.5592 26.5127 L 120.5198 26.5127 L 120.362 24.1452 L 118.8625 24.2358 L 118.8625 36.0625 L 120.7375 36.0625 L 120.7375 36.0625 Z" fill="#ffffff"/>			<path d="M 132.0893 35.99 C 133.5901 35.99 134.8699 35.6499 135.8701 35.1098 L 135.6501 33.4892 C 134.6298 34.0026 133.5692 34.2696 132.3186 34.2696 C 129.6507 34.2696 128.4417 33.1606 128.3375 29.9375 L 136.2302 29.9375 C 136.2502 29.7626 136.2702 29.5203 136.2702 29.3184 C 136.2702 25.7792 134.403 24 131.4432 24 C 128.0478 24 126.4625 26.1801 126.4625 29.5472 C 126.4625 33.9205 128.0285 35.99 132.0893 35.99 L 132.0893 35.99 ZM 128.2991 29.0625 C 128.4209 26.81 129.3588 25.7404 131.464 25.7404 C 133.2566 25.7404 134.4863 26.6573 134.5298 29.0625 L 128.2991 29.0625 L 128.2991 29.0625 Z" fill="#ffffff"/>			<path d="M 157.5375 30.0001 C 157.5375 25.8894 156.0685 24 152.6274 24 C 149.2124 24 147.6625 25.8894 147.6625 30.0001 C 147.6625 34.1108 149.1933 36 152.6274 36 C 156.0491 36 157.5375 34.1108 157.5375 30.0001 L 157.5375 30.0001 ZM 149.5375 30.0001 C 149.5375 26.8195 150.3958 25.7404 152.6274 25.7404 C 154.8209 25.7404 155.6625 26.8195 155.6625 30.0001 C 155.6625 33.1622 154.8209 34.2596 152.6274 34.2596 C 150.3958 34.2596 149.5375 33.1808 149.5375 30.0001 L 149.5375 30.0001 Z" fill="#ffffff"/>			<path d="M 169.1375 36.0625 L 169.1375 28.1186 C 169.1375 25.4103 167.6015 23.99 165.2242 23.99 C 163.9708 23.99 162.7548 24.5101 161.979 25.4103 L 161.9198 25.4103 L 161.6041 24.15 L 160.2625 24.25 L 160.2625 36.0625 L 162.1375 36.0625 L 162.1375 27.0195 C 162.6613 26.2045 163.7837 25.7504 164.7378 25.7504 C 166.384 25.7504 167.2625 26.4509 167.2625 28.1186 L 167.2625 36.0625 L 169.1375 36.0625 L 169.1375 36.0625 Z" fill="#ffffff"/>			<path d="M 185.3204 36.0625 L 185.3204 25.7606 L 187.6209 25.7606 L 187.6209 23 L 185.3204 23 L 185.3204 22.9478 C 185.3204 22.8826 185.6405 22.8438 186.6007 22.8438 C 186.9408 22.8438 187.3008 22.8487 187.6409 22.8591 L 187.861 20.4502 C 187.3008 20.2822 186.5207 20.1563 185.7805 20.1563 C 182.7999 20.1563 181.4596 21.773 181.4596 22.9374 L 181.4596 23 L 180.0993 23 L 180.0993 25.7606 L 181.4796 25.7606 L 181.4796 36.0625 L 185.3204 36.0625 L 185.3204 36.0625 Z" fill="#ffffff"/>			<path d="M 194.9498 35.7006 L 197.9104 35.7006 L 197.9104 28.335 C 197.9104 24.7319 196.6501 23.1928 192.6328 23.1928 C 190.8026 23.1928 189.2365 23.4331 187.8849 23.9341 L 188.2067 26.8533 C 189.451 26.321 190.3091 26.0679 191.8264 26.0679 C 193.5064 26.0679 194.0896 26.7012 194.0896 27.8417 L 194.0896 28.2611 C 193.4392 28.143 192.7 28.0698 191.7816 28.0698 C 188.8074 28.0698 187.0696 29.2655 187.0696 31.5626 C 187.0696 34.5509 188.6143 35.8988 191.1768 35.8988 C 192.6328 35.8988 193.8424 35.4627 194.6697 34.7095 L 194.9498 35.7006 L 194.9498 35.7006 ZM 194.0896 31.66 C 194.0896 32.4637 193.2824 33.0238 192.364 33.0238 C 191.4904 33.0238 190.9304 32.5854 190.9304 31.5139 C 190.9304 30.4424 191.468 29.9302 192.6104 29.9302 C 193.2824 29.9302 193.7752 30.0527 194.0896 30.1501 L 194.0896 31.66 L 194.0896 31.66 Z" fill="#ffffff"/>			<path d="M 208.2514 23.6109 C 207.5113 23.3669 206.331 23.1928 205.3508 23.1928 C 201.3489 23.1928 199.6696 25.2489 199.6696 29.4782 C 199.6696 33.8776 201.5998 35.8072 205.2708 35.8072 C 206.6111 35.8072 207.6713 35.5887 208.3714 35.2246 L 208.1114 32.5336 C 207.5313 32.7772 206.8511 32.9322 206.111 32.9322 C 204.4906 32.9322 203.5304 31.9137 203.5304 29.4782 C 203.5304 26.9542 204.1305 26.0679 206.191 26.0679 C 206.7911 26.0679 207.4713 26.2236 208.0514 26.4007 L 208.2514 23.6109 L 208.2514 23.6109 Z" fill="#ffffff"/>			<path d="M 215.3507 35.8072 C 217.0164 35.8072 218.6609 35.5375 219.7792 35.1421 L 219.3187 32.4416 C 218.1785 32.7752 216.9945 32.9322 215.8308 32.9322 C 214.0304 32.9322 213.1502 32.3827 212.9902 30.9302 L 220.0204 30.9302 C 220.0862 30.5457 220.1291 30.0381 220.1291 29.6075 C 220.1291 24.9221 218.0031 23.1928 214.5905 23.1928 C 210.7497 23.1928 208.9893 25.3916 208.9893 30.0227 C 208.9893 33.758 210.9898 35.8072 215.3507 35.8072 L 215.3507 35.8072 ZM 212.9102 29.0698 C 213.0302 26.7799 213.4503 26.0679 214.6105 26.0679 C 215.6708 26.0679 216.2309 26.9037 216.2709 29.0698 L 212.9102 29.0698 L 212.9102 29.0698 Z" fill="#ffffff"/>			<path d="M 231.7304 29.3438 C 231.7304 24.8717 230.0029 23.1928 227.2854 23.1928 C 226.3801 23.1928 225.4748 23.4435 224.7393 23.9969 L 224.6804 23.9612 L 224.7204 22.4691 L 224.7204 20.0625 L 220.8796 20.239 L 220.8796 35.9375 L 223.4801 35.9375 L 223.9202 34.9742 C 224.6404 35.3604 225.6257 35.8072 226.8516 35.8072 C 229.8672 35.8072 231.7304 33.8841 231.7304 29.2998 L 231.7304 29.3438 L 231.7304 29.3438 ZM 227.8696 29.3843 C 227.8696 32.362 227.3042 32.9322 226.2481 32.9322 C 225.5125 32.9322 225.0222 32.552 224.7204 32.0452 L 224.7204 26.9135 C 225.041 26.3855 225.588 26.0679 226.2292 26.0679 C 227.3419 26.0679 227.8696 26.4911 227.8696 29.3843 L 227.8696 29.3843 Z" fill="#ffffff"/>			<path d="M 244.3304 29.4997 C 244.3304 24.9972 242.6417 23.1928 238.9083 23.1928 C 235.2068 23.1928 233.4696 24.9972 233.4696 29.4997 C 233.4696 34.0248 235.1875 35.8072 238.8908 35.8072 C 242.6417 35.8072 244.3304 34.0248 244.3304 29.4997 L 244.3304 29.4997 ZM 237.3304 29.4997 C 237.3304 26.6839 237.7337 26.0679 238.9083 26.0679 C 240.0655 26.0679 240.4696 26.6839 240.4696 29.4997 C 240.4696 32.2744 240.0655 32.9322 238.9083 32.9322 C 237.7512 32.9322 237.3304 32.295 237.3304 29.4997 L 237.3304 29.4997 Z" fill="#ffffff"/>			<path d="M 256.9304 29.4997 C 256.9304 24.9972 255.2417 23.1928 251.5083 23.1928 C 247.8068 23.1928 246.0696 24.9972 246.0696 29.4997 C 246.0696 34.0248 247.7875 35.8072 251.4908 35.8072 C 255.2417 35.8072 256.9304 34.0248 256.9304 29.4997 L 256.9304 29.4997 ZM 249.9304 29.4997 C 249.9304 26.6839 250.3337 26.0679 251.5083 26.0679 C 252.6655 26.0679 253.0696 26.6839 253.0696 29.4997 C 253.0696 32.2744 252.6655 32.9322 251.5083 32.9322 C 250.3512 32.9322 249.9304 32.295 249.9304 29.4997 L 249.9304 29.4997 Z" fill="#ffffff"/>			<path d="M 262.5204 20.0625 L 258.6796 20.4563 L 258.6796 36.0625 L 262.5204 36.0625 L 262.5204 30.6041 L 263.8607 30.6041 L 265.8611 36.0625 L 270.1421 36.0625 L 267.1614 28.9501 L 270.0621 22.9375 L 265.8611 22.9375 L 263.8807 27.6149 L 262.5204 27.6149 L 262.5204 20.0625 L 262.5204 20.0625 Z" fill="#ffffff"/>		</g>		<path id="Facebook" d="M 48.3416 14.8389 L 44.6033 14.8389 C 44.6033 14.8389 38.7574 14.2393 38.7574 20.1948 C 38.7574 21.4683 38.7574 22.6628 38.7574 22.6628 L 36.3795 22.6628 L 36.3416 27.3491 L 38.7574 27.3491 L 38.7574 39.8218 L 44.3 39.8218 L 44.3 27.3491 L 47.5011 27.3491 L 48.2797 22.6628 L 44.3 22.6628 L 44.3 20.7568 C 44.3 20.7568 43.959 19.146 45.9298 19.146 L 48.3036 19.146 L 48.3416 14.8389 Z" fill="#ffffff"/>	</g></svg>